<?xml version="1.0" standalone="no"?>
<!DOCTYPE svg PUBLIC "-//W3C//DTD SVG 20010904//EN"
 "http://www.w3.org/TR/2001/REC-SVG-20010904/DTD/svg10.dtd">
<svg version="1.0" xmlns="http://www.w3.org/2000/svg"
 width="640.000000pt" height="640.000000pt" viewBox="0 0 640.000000 640.000000"
 preserveAspectRatio="xMidYMid meet">
<metadata>
Created by potrace 1.11, written by Peter Selinger 2001-2013
</metadata>
<g transform="translate(0.000000,640.000000) scale(0.100000,-0.100000)"
fill="#000000" stroke="none">
<path d="M2930 6389 c-564 -49 -1125 -255 -1584 -581 -991 -706 -1496 -1911
-1305 -3113 77 -483 269 -952 551 -1349 706 -991 1911 -1496 3113 -1305 483
77 952 269 1349 551 698 497 1170 1257 1305 2103 132 829 -66 1677 -551 2359
-604 849 -1590 1353 -2628 1345 -85 -1 -198 -5 -250 -10z m-1175 -2429 c143
-14 212 -31 311 -80 64 -31 96 -56 154 -116 119 -126 164 -248 164 -449 0
-206 -47 -330 -173 -456 -159 -160 -322 -198 -833 -199 l-218 0 0 655 0 655
243 0 c133 0 292 -5 352 -10z m1505 -439 l235 -443 3 446 2 446 160 0 160 0 0
-655 0 -655 -187 0 -188 0 -234 443 c-128 243 -237 446 -242 451 -5 6 -9 -184
-9 -442 l0 -452 -155 0 -155 0 0 655 0 655 187 -2 187 -3 236 -444z m1565 438
c235 -32 337 -118 352 -296 10 -125 -30 -214 -125 -274 l-43 -27 43 -20 c64
-28 113 -76 145 -140 25 -52 28 -67 28 -167 0 -91 -4 -118 -21 -156 -31 -66
-80 -116 -146 -150 -111 -56 -150 -61 -540 -66 l-358 -5 0 656 0 656 294 0
c162 0 329 -5 371 -11z m655 -1912 c38 2 70 -20 70 -47 0 -29 -32 -47 -85 -49
-27 -1 -60 -2 -72 -3 -27 0 -72 32 -73 52 0 14 26 37 60 52 8 3 26 3 40 0 14
-4 41 -6 60 -5z m-4336 -16 c9 -8 16 -21 16 -31 0 -32 -29 -44 -111 -46 -74
-3 -80 -1 -95 22 -15 22 -15 26 0 48 15 23 21 25 95 22 47 -1 86 -8 95 -15z"/>
<path d="M1490 3315 l0 -405 78 0 c229 0 364 65 433 206 29 59 33 77 37 174 6
144 -17 224 -84 299 -81 90 -195 130 -371 131 l-93 0 0 -405z"/>
<path d="M4490 3599 l0 -141 128 4 c138 4 177 16 209 64 21 33 22 109 0 150
-27 52 -68 64 -211 64 l-126 0 0 -141z"/>
<path d="M4490 3066 l0 -176 138 0 c123 0 142 2 182 23 58 29 80 62 87 129 8
80 -21 138 -85 170 -40 19 -67 23 -184 26 l-138 4 0 -176z"/>
</g>
</svg>
