<?xml version="1.0" encoding="UTF-8" standalone="no"?><!DOCTYPE svg PUBLIC "-//W3C//DTD SVG 1.1//EN" "http://www.w3.org/Graphics/SVG/1.1/DTD/svg11.dtd"><svg width="100%" height="100%" viewBox="0 0 105 102" version="1.1" xmlns="http://www.w3.org/2000/svg" xmlns:xlink="http://www.w3.org/1999/xlink" xml:space="preserve" xmlns:serif="http://www.serif.com/" style="fill-rule:evenodd;clip-rule:evenodd;stroke-linejoin:round;stroke-miterlimit:2;"><path d="M49.96,3.35l-37.48,21.63c-1.402,0.808 -2.264,2.302 -2.264,3.92l0,43.29c0,1.618 0.862,3.111 2.263,3.921l37.479,21.647c1.402,0.808 3.128,0.808 4.529,0l37.471,-21.647c1.4,-0.81 2.262,-2.303 2.262,-3.921l0,-43.292c0,-1.616 -0.862,-3.11 -2.264,-3.918l-37.47,-21.63c-0.7,-0.403 -1.482,-0.606 -2.263,-0.606c-0.782,0 -1.563,0.203 -2.263,0.606Z" style="fill:url(#_Linear1);fill-rule:nonzero;"/><path d="M11.148,74.94c0.356,0.467 0.806,0.867 1.331,1.171l32.151,18.569l5.352,3.078c0.801,0.461 1.715,0.657 2.612,0.591c0.3,-0.025 0.599,-0.08 0.89,-0.164l39.523,-72.371c-0.303,-0.325 -0.655,-0.607 -1.051,-0.834l-24.54,-14.166l-12.969,-7.464c-0.371,-0.213 -0.769,-0.367 -1.177,-0.467l-42.122,72.057Z" style="fill:url(#_Linear2);fill-rule:nonzero;"/><path d="M51.769,2.768c-0.628,0.062 -1.244,0.257 -1.809,0.582l-37.373,21.567l40.29,73.399c0.559,-0.081 1.106,-0.268 1.61,-0.558l37.471,-21.647c1.157,-0.669 1.947,-1.806 2.187,-3.092l-41.078,-70.177c-0.303,-0.06 -0.612,-0.09 -0.92,-0.09c-0.127,0 -0.253,0.005 -0.378,0.016Z" style="fill:url(#_Linear3);fill-rule:nonzero;"/><clipPath id="_clip4"><path d="M49.96,3.35l-37.48,21.63c-1.401,0.808 -2.264,2.302 -2.264,3.92l0,43.29c0,1.618 0.863,3.111 2.263,3.921l37.479,21.647c1.402,0.808 3.128,0.808 4.529,0l37.471,-21.647c1.4,-0.81 2.262,-2.303 2.262,-3.921l0,-43.292c0,-1.616 -0.862,-3.11 -2.264,-3.918l-37.47,-21.63c-0.7,-0.403 -1.482,-0.606 -2.263,-0.606c-0.782,0 -1.563,0.203 -2.263,0.606Z" clip-rule="nonzero"/></clipPath><g clip-path="url(#_clip4)"><path d="M92.052,76.111l-37.518,21.646c-0.516,0.298 -1.079,0.485 -1.655,0.563l0.747,1.361l41.672,-24.122l0,-0.568l-1.03,-1.761c-0.308,1.199 -1.123,2.249 -2.216,2.881Z" style="fill:url(#_Linear5);fill-rule:nonzero;"/></g><clipPath id="_clip6"><path d="M49.96,3.35l-37.48,21.63c-1.401,0.808 -2.264,2.302 -2.264,3.92l0,43.29c0,1.618 0.863,3.111 2.263,3.921l37.479,21.647c1.402,0.808 3.128,0.808 4.529,0l37.471,-21.647c1.4,-0.81 2.262,-2.303 2.262,-3.921l0,-43.292c0,-1.616 -0.862,-3.11 -2.264,-3.918l-37.47,-21.63c-0.7,-0.403 -1.482,-0.606 -2.263,-0.606c-0.782,0 -1.563,0.203 -2.263,0.606Z" clip-rule="nonzero"/></clipPath><g clip-path="url(#_clip6)"><path d="M92.052,76.111l-37.518,21.646c-0.516,0.298 -1.079,0.485 -1.655,0.563l0.747,1.361l41.672,-24.122l0,-0.568l-1.03,-1.761c-0.308,1.199 -1.123,2.249 -2.216,2.881Z" style="fill:url(#_Linear7);fill-rule:nonzero;"/></g><defs><linearGradient id="_Linear1" x1="0" y1="0" x2="1" y2="0" gradientUnits="userSpaceOnUse" gradientTransform="matrix(-33.8603,69.0751,-69.0751,-33.8603,67.4572,19.4579)"><stop offset="0" style="stop-color:#697e66;stop-opacity:1"/><stop offset="1" style="stop-color:#82a178;stop-opacity:1"/></linearGradient><linearGradient id="_Linear2" x1="0" y1="0" x2="1" y2="0" gradientUnits="userSpaceOnUse" gradientTransform="matrix(95.0096,-70.1982,70.1982,95.0096,46.5137,55.6079)"><stop offset="0" style="stop-color:#697e66;stop-opacity:1"/><stop offset="0.14" style="stop-color:#697e66;stop-opacity:1"/><stop offset="0.91" style="stop-color:#9ab48e;stop-opacity:1"/><stop offset="1" style="stop-color:#9ab48e;stop-opacity:1"/></linearGradient><linearGradient id="_Linear3" x1="0" y1="0" x2="1" y2="0" gradientUnits="userSpaceOnUse" gradientTransform="matrix(86.6566,0,0,86.6566,8.89019,50.5358)"><stop offset="0" style="stop-color:#9ab48e;stop-opacity:1"/><stop offset="0.09" style="stop-color:#9ab48e;stop-opacity:1"/><stop offset="0.86" style="stop-color:#697e66;stop-opacity:1"/><stop offset="1" style="stop-color:#697e66;stop-opacity:1"/></linearGradient><linearGradient id="_Linear5" x1="0" y1="0" x2="1" y2="0" gradientUnits="userSpaceOnUse" gradientTransform="matrix(86.6566,0,0,86.6566,8.89019,86.4558)"><stop offset="0" style="stop-color:#9ab48e;stop-opacity:1"/><stop offset="0.09" style="stop-color:#9ab48e;stop-opacity:1"/><stop offset="0.86" style="stop-color:#697e66;stop-opacity:1"/><stop offset="1" style="stop-color:#697e66;stop-opacity:1"/></linearGradient><linearGradient id="_Linear7" x1="0" y1="0" x2="1" y2="0" gradientUnits="userSpaceOnUse" gradientTransform="matrix(-53.4443,109.026,-109.026,-53.4443,108.172,17.4099)"><stop offset="0" style="stop-color:#697e66;stop-opacity:1"/><stop offset="1" style="stop-color:#82a178;stop-opacity:1"/></linearGradient></defs></svg>