<?xml version="1.0" encoding="UTF-8" standalone="no"?><!DOCTYPE svg PUBLIC "-//W3C//DTD SVG 1.1//EN" "http://www.w3.org/Graphics/SVG/1.1/DTD/svg11.dtd"><svg width="100%" height="100%" viewBox="0 0 2225 2535" version="1.1" xmlns="http://www.w3.org/2000/svg" xmlns:xlink="http://www.w3.org/1999/xlink" xml:space="preserve" xmlns:serif="http://www.serif.com/" style="fill-rule:evenodd;clip-rule:evenodd;stroke-linejoin:round;stroke-miterlimit:2;"><path d="M1039.11,15.861l-979.918,565.498c-36.653,21.141 -59.189,60.19 -59.189,102.495l0,1131.83c0,42.281 22.536,81.33 59.166,102.518l979.894,565.939c36.654,21.141 81.773,21.141 118.403,0l979.685,-565.939c36.606,-21.188 59.142,-60.237 59.142,-102.518l0,-1131.88c0,-42.258 -22.536,-81.307 -59.189,-102.448l-979.662,-565.498c-18.303,-10.558 -38.746,-15.861 -59.166,-15.861c-20.443,0 -40.863,5.303 -59.166,15.861Z" style="fill:url(#_Linear1);fill-rule:nonzero;"/><path d="M24.35,1887.58c9.326,12.21 21.071,22.676 34.816,30.63l840.584,485.47l139.938,80.469c20.932,12.071 44.817,17.187 68.283,15.466c7.838,-0.651 15.652,-2.093 23.281,-4.302l1033.32,-1892.13c-7.908,-8.489 -17.118,-15.862 -27.467,-21.816l-641.619,-370.37l-339.066,-195.128c-9.698,-5.581 -20.094,-9.605 -30.769,-12.233l-1101.3,1883.95Z" style="fill:url(#_Linear2);fill-rule:nonzero;"/><path d="M1086.39,0.628c-16.397,1.628 -32.514,6.721 -47.282,15.233l-977.127,563.87l1053.39,1919.02c14.606,-2.116 28.909,-7 42.096,-14.606l979.685,-565.939c30.257,-17.513 50.909,-47.236 57.166,-80.866l-1073.97,-1834.76c-7.93,-1.582 -16.001,-2.373 -24.071,-2.373c-3.302,0 -6.605,0.14 -9.884,0.419Z" style="fill:url(#_Linear3);fill-rule:nonzero;"/><clipPath id="_clip4"><path d="M1039.11,15.861l-979.918,565.498c-36.63,21.141 -59.189,60.19 -59.189,102.495l0,1131.83c0,42.281 22.559,81.33 59.166,102.518l979.894,565.939c36.654,21.141 81.773,21.141 118.403,0l979.685,-565.939c36.606,-21.188 59.142,-60.237 59.142,-102.518l0,-1131.88c0,-42.258 -22.536,-81.307 -59.189,-102.448l-979.662,-565.498c-18.303,-10.558 -38.746,-15.861 -59.166,-15.861c-20.443,0 -40.863,5.303 -59.166,15.861Z" clip-rule="nonzero"/></clipPath><g clip-path="url(#_clip4)"><path d="M2139.61,1918.2l-980.918,565.916c-13.489,7.791 -28.211,12.675 -43.281,14.722l19.536,35.583l1089.53,-630.664l0,-14.861l-26.932,-46.026c-8.07,31.35 -29.373,58.794 -57.933,75.33Z" style="fill:url(#_Linear5);fill-rule:nonzero;"/></g><clipPath id="_clip6"><path d="M1039.11,15.861l-979.918,565.498c-36.63,21.141 -59.189,60.19 -59.189,102.495l0,1131.83c0,42.281 22.559,81.33 59.166,102.518l979.894,565.939c36.654,21.141 81.773,21.141 118.403,0l979.685,-565.939c36.606,-21.188 59.142,-60.237 59.142,-102.518l0,-1131.88c0,-42.258 -22.536,-81.307 -59.189,-102.448l-979.662,-565.498c-18.303,-10.558 -38.746,-15.861 -59.166,-15.861c-20.443,0 -40.863,5.303 -59.166,15.861Z" clip-rule="nonzero"/></clipPath><g clip-path="url(#_clip6)"><path d="M2139.61,1918.2l-980.918,565.916c-13.489,7.791 -28.211,12.675 -43.281,14.722l19.536,35.583l1089.53,-630.664l0,-14.861l-26.932,-46.026c-8.07,31.35 -29.373,58.794 -57.933,75.33Z" style="fill:url(#_Linear7);fill-rule:nonzero;"/></g><defs><linearGradient id="_Linear1" x1="0" y1="0" x2="1" y2="0" gradientUnits="userSpaceOnUse" gradientTransform="matrix(-885.281,1805.97,-1805.97,-885.281,1496.57,436.992)"><stop offset="0" style="stop-color:#697e66;stop-opacity:1"/><stop offset="1" style="stop-color:#82a178;stop-opacity:1"/></linearGradient><linearGradient id="_Linear2" x1="0" y1="0" x2="1" y2="0" gradientUnits="userSpaceOnUse" gradientTransform="matrix(2484.03,-1835.34,1835.34,2484.03,949.001,1382.14)"><stop offset="0" style="stop-color:#697e66;stop-opacity:1"/><stop offset="0.14" style="stop-color:#697e66;stop-opacity:1"/><stop offset="0.91" style="stop-color:#9ab48e;stop-opacity:1"/><stop offset="1" style="stop-color:#9ab48e;stop-opacity:1"/></linearGradient><linearGradient id="_Linear3" x1="0" y1="0" x2="1" y2="0" gradientUnits="userSpaceOnUse" gradientTransform="matrix(2265.64,0,0,2265.64,-34.6693,1249.53)"><stop offset="0" style="stop-color:#9ab48e;stop-opacity:1"/><stop offset="0.09" style="stop-color:#9ab48e;stop-opacity:1"/><stop offset="0.86" style="stop-color:#697e66;stop-opacity:1"/><stop offset="1" style="stop-color:#697e66;stop-opacity:1"/></linearGradient><linearGradient id="_Linear5" x1="0" y1="0" x2="1" y2="0" gradientUnits="userSpaceOnUse" gradientTransform="matrix(2265.64,0,0,2265.64,-34.6693,2188.66)"><stop offset="0" style="stop-color:#9ab48e;stop-opacity:1"/><stop offset="0.09" style="stop-color:#9ab48e;stop-opacity:1"/><stop offset="0.86" style="stop-color:#697e66;stop-opacity:1"/><stop offset="1" style="stop-color:#697e66;stop-opacity:1"/></linearGradient><linearGradient id="_Linear7" x1="0" y1="0" x2="1" y2="0" gradientUnits="userSpaceOnUse" gradientTransform="matrix(-1397.3,2850.5,-2850.5,-1397.3,2561.05,383.449)"><stop offset="0" style="stop-color:#697e66;stop-opacity:1"/><stop offset="1" style="stop-color:#82a178;stop-opacity:1"/></linearGradient></defs></svg>