<?xml version="1.0" encoding="UTF-8" standalone="no"?><!DOCTYPE svg PUBLIC "-//W3C//DTD SVG 1.1//EN" "http://www.w3.org/Graphics/SVG/1.1/DTD/svg11.dtd"><svg width="100%" height="100%" viewBox="0 0 240 265" version="1.1" xmlns="http://www.w3.org/2000/svg" xmlns:xlink="http://www.w3.org/1999/xlink" xml:space="preserve" xmlns:serif="http://www.serif.com/" style="fill-rule:evenodd;clip-rule:evenodd;stroke-linejoin:round;stroke-miterlimit:2;"><g><path d="M120,41.25c-66.25,0 -120,-9.375 -120,-20.625l0,223.125c0,11.563 53.75,20.625 120,20.625c66.25,0 120,-9.375 120,-20.625l0,-223.125c0,11.562 -53.75,20.625 -120,20.625Z" style="fill:#f80000;fill-rule:nonzero;"/><g><path d="M0,20.625l0,223.125c0,11.563 53.75,20.625 120,20.625l0,-223.125c-66.25,0 -120,-9.063 -120,-20.625Z" style="fill:#d90000;fill-rule:nonzero;"/><path d="M223.125,31.25l0,223.125c10.625,-3.125 16.875,-6.563 16.875,-10.625l0,-223.125c0,4.063 -6.25,7.5 -16.875,10.625Z" style="fill:#d90000;fill-rule:nonzero;"/></g><ellipse cx="120" cy="20.625" rx="120" ry="20.625" style="fill:#ba0000;"/><path d="M0,160.938c0,11.562 53.75,20.624 120,20.624c66.25,0 120,-9.375 120,-20.625l0,16.875c0,11.563 -53.75,20.625 -120,20.625c-66.25,0 -120,-9.375 -120,-20.625l0,-16.875Zm0,-57.5c0,11.563 53.75,20.625 120,20.625c66.25,0 120,-9.375 120,-20.625l0,-16.875c0,11.563 -53.75,20.625 -120,20.625c-66.25,0 -120,-9.375 -120,-20.625l0,16.875Z" style="fill:#9b0000;fill-rule:nonzero;"/></g><g id="Layer1"></g><g id="g16337"><g transform="matrix(3.125,0,0,3.125,-130.702,-5.46875)"><g transform="matrix(0.999101,0.0423847,-0.0423847,0.999101,2.34794,-2.13035)"><text x="51.414px" y="54.306px" style="font-family:'DejaVuSansMono-Bold', 'DejaVu Sans Mono', monospace;font-weight:700;font-size:16px;fill:#fff;">O</text></g><g transform="matrix(0.999729,0.0232962,-0.0232962,0.999729,1.29125,-1.40683)"><text x="61.026px" y="54.717px" style="font-family:'DejaVuSansMono-Bold', 'DejaVu Sans Mono', monospace;font-weight:700;font-size:16px;fill:#fff;">R</text></g><g transform="matrix(0.99997,0.00775964,-0.00775964,0.99997,0.428475,-0.546655)"><text x="70.662px" y="54.944px" style="font-family:'DejaVuSansMono-Bold', 'DejaVu Sans Mono', monospace;font-weight:700;font-size:16px;fill:#fff;">A</text></g><g transform="matrix(0.999968,-0.00798306,0.00798306,0.999968,-0.436662,0.642716)"><text x="80.29px" y="55.019px" style="font-family:'DejaVuSansMono-Bold', 'DejaVu Sans Mono', monospace;font-weight:700;font-size:16px;fill:#fff;">C</text></g><g transform="matrix(0.999676,-0.0254587,0.0254587,0.999676,-1.36976,2.30731)"><text x="89.93px" y="54.948px" style="font-family:'DejaVuSansMono-Bold', 'DejaVu Sans Mono', monospace;font-weight:700;font-size:16px;fill:#fff;">L</text></g><g transform="matrix(0.999078,-0.0429274,0.0429274,0.999078,-2.25683,4.32386)"><text x="99.55px" y="54.711px" style="font-family:'DejaVuSansMono-Bold', 'DejaVu Sans Mono', monospace;font-weight:700;font-size:16px;fill:#fff;">E</text></g></g></g></svg>